<?xml version="1.0" encoding="utf-8"?>
<!-- Generator: Adobe Illustrator 16.0.0, SVG Export Plug-In . SVG Version: 6.00 Build 0)  -->
<!DOCTYPE svg PUBLIC "-//W3C//DTD SVG 1.1//EN" "http://www.w3.org/Graphics/SVG/1.1/DTD/svg11.dtd">
<svg version="1.1" id="Ebene_1" xmlns="http://www.w3.org/2000/svg" xmlns:xlink="http://www.w3.org/1999/xlink" x="0px" y="0px"
	 width="512px" height="512px" viewBox="0 0 512 512" enable-background="new 0 0 512 512" xml:space="preserve">
<g id="g64047" transform="matrix(1.25,0,0,-1.25,679.95291,1173.373)">
	<path id="path64049" fill="#E41C2A" d="M-270.449,820.187c-19.478,9.77-42.34,15.395-66.775,15.44
		c-24.725,0.037-47.84-5.672-67.496-15.577l-29.263,38.535c27.53,13.806,60.128,21.76,95.052,21.713
		c36.05-0.056,69.618-8.664,97.68-23.408L-270.449,820.187z"/>
</g>
<g id="g64051" transform="matrix(1.25,0,0,-1.25,674.42291,1173.6642)">
	<path id="path64053" fill="#E41C2A" d="M-324.058,818.468c55.253-4.314,98.376-41.381,98.306-86.425
		c-0.07-47.862-48.919-86.578-109.13-86.495c-51.926,0.081-95.32,28.999-106.227,67.67l51.48,8.868
		c5.698-20.259,28.051-35.379,54.82-35.428c31.082-0.041,56.3,20.298,56.331,45.469c0.046,25.157-25.104,45.601-56.199,45.654
		c-7.354,0.009-14.363-1.117-20.8-3.171L-324.058,818.468z"/>
</g>
<g id="g64055" transform="matrix(1.25,0,0,-1.25,656.51291,1181.6942)">
	<path id="path64057" fill="#214295" d="M-499.097,744.273c0.057,40.273,20.95,76.635,54.479,102.571l38.312-32.82
		c-25.7-19.557-41.832-47.581-41.887-78.755c-0.089-59.215,57.846-107.313,129.397-107.427
		c71.538-0.115,129.619,47.813,129.722,107.027c0.042,31.174-16.009,59.258-41.619,78.885l37.433,30.622
		c31.915-25.882,51.598-61.442,51.535-100.665c-0.122-78.931-80.218-142.827-178.905-142.67
		C-419.33,601.187-499.221,665.33-499.097,744.273"/>
</g>
</svg>
