<?xml version="1.0" encoding="utf-8"?>
<!-- Generator: Adobe Illustrator 16.0.0, SVG Export Plug-In . SVG Version: 6.00 Build 0)  -->
<!DOCTYPE svg PUBLIC "-//W3C//DTD SVG 1.1//EN" "http://www.w3.org/Graphics/SVG/1.1/DTD/svg11.dtd">
<svg version="1.1" id="Ebene_1" xmlns="http://www.w3.org/2000/svg" xmlns:xlink="http://www.w3.org/1999/xlink" x="0px" y="0px"
	 width="512px" height="512px" viewBox="0 0 512 512" enable-background="new 0 0 512 512" xml:space="preserve">
<rect y="0" fill="#E30613" width="512" height="512.029"/>
<path fill="#FFFFFF" d="M201.447,273.958c0,30.46-26.122,54.642-54.112,54.642c-28.199,0-54-24.182-54-54.642
	c0-30.429,25.802-54.668,54-54.668C175.324,219.29,201.447,243.529,201.447,273.958 M250.29,273.958
	c0-56.474-45.731-100.102-102.955-100.102c-57.065,0-102.842,43.631-102.842,100.102c0,56.482,45.775,100.142,102.842,100.142
	C204.558,374.1,250.29,330.44,250.29,273.958 M471.392,273.958c0-56.474-45.764-100.102-102.854-100.102
	c-57.124,0-102.901,43.631-102.901,100.102c0,56.482,45.777,100.142,102.901,100.142C425.628,374.1,471.392,330.44,471.392,273.958
	 M422.564,273.958c0,30.46-26.066,54.642-54.027,54.642c-28.271,0-54.014-24.182-54.014-54.642
	c0-30.429,25.743-54.668,54.014-54.668C396.496,219.29,422.564,243.529,422.564,273.958 M436.304,141.798
	c0-13.8-11.155-24.597-24.255-24.597c-13.872,0-24.676,10.798-24.676,24.597c0,13.09,10.804,24.312,24.676,24.312
	C425.148,166.11,436.304,154.887,436.304,141.798 M350.052,141.798c0-13.8-11.216-24.597-24.665-24.597
	c-13.871,0-24.69,10.798-24.69,24.597c0,13.09,10.82,24.312,24.69,24.312C338.836,166.11,350.052,154.887,350.052,141.798"/>
</svg>
