<?xml version="1.0" encoding="utf-8"?>
<!-- Generator: Adobe Illustrator 16.0.0, SVG Export Plug-In . SVG Version: 6.00 Build 0)  -->
<!DOCTYPE svg PUBLIC "-//W3C//DTD SVG 1.1//EN" "http://www.w3.org/Graphics/SVG/1.1/DTD/svg11.dtd">
<svg version="1.1" id="Ebene_1" xmlns="http://www.w3.org/2000/svg" xmlns:xlink="http://www.w3.org/1999/xlink" x="0px" y="0px"
	 width="512px" height="512px" viewBox="0 0 512 512" enable-background="new 0 0 512 512" xml:space="preserve">
<g>
	<g>
		<rect x="55.75" y="55.751" fill="#FBBA00" width="400.5" height="400.498"/>
		<path fill="#E30613" d="M304.521,297.52c0,10.654-6.808,18.842-21.358,18.842h-70.335v-38.023h70.335
			C297.051,278.338,304.521,287.563,304.521,297.52 M293.109,211.895c0,8.885-4.281,16.354-17.415,16.354h-62.868v-33.022h62.868
			C288.829,195.228,293.109,203.347,293.109,211.895 M359.199,299.299c0-23.462-11.728-41.214-28.391-51.544
			c10.598-9.947,16.663-24.127,16.663-39.766c0-41.943-33.017-63.583-67.46-63.583H158.146v223.106h129.276
			C326.857,367.515,359.199,340.873,359.199,299.299"/>
	</g>
</g>
</svg>
