<?xml version="1.0" encoding="utf-8"?>
<!-- Generator: Adobe Illustrator 16.0.0, SVG Export Plug-In . SVG Version: 6.00 Build 0)  -->
<!DOCTYPE svg PUBLIC "-//W3C//DTD SVG 1.1//EN" "http://www.w3.org/Graphics/SVG/1.1/DTD/svg11.dtd">
<svg version="1.1" id="Ebene_1" xmlns="http://www.w3.org/2000/svg" xmlns:xlink="http://www.w3.org/1999/xlink" x="0px" y="0px"
	 width="512px" height="512px" viewBox="0 0 512 512" enable-background="new 0 0 512 512" xml:space="preserve">
<g>
	<g>
		<rect fill="#FBBA00" width="512" height="511.998"/>
		<path fill="#E30613" d="M318.029,309.076c0,13.622-8.702,24.089-27.303,24.089h-89.919v-48.609h89.919
			C308.479,284.556,318.029,296.347,318.029,309.076 M303.439,199.615c0,11.358-5.473,20.906-22.263,20.906h-80.37v-42.215h80.37
			C297.968,178.307,303.439,188.687,303.439,199.615 M387.93,311.354c0-29.996-14.992-52.69-36.295-65.896
			c13.55-12.717,21.303-30.844,21.303-50.837c0-53.619-42.209-81.284-86.241-81.284H130.903v285.22H296.17
			C346.583,398.558,387.93,364.499,387.93,311.354"/>
	</g>
</g>
</svg>
