<?xml version="1.0" encoding="utf-8"?>
<!-- Generator: Adobe Illustrator 16.0.0, SVG Export Plug-In . SVG Version: 6.00 Build 0)  -->
<!DOCTYPE svg PUBLIC "-//W3C//DTD SVG 1.1//EN" "http://www.w3.org/Graphics/SVG/1.1/DTD/svg11.dtd">
<svg version="1.1" id="Ebene_1" xmlns="http://www.w3.org/2000/svg" xmlns:xlink="http://www.w3.org/1999/xlink" x="0px" y="0px"
	 width="512px" height="512px" viewBox="0 0 512 512" enable-background="new 0 0 512 512" xml:space="preserve">
<rect fill="#FDB813" width="512" height="512"/>
<polygon points="258.366,271.311 258.366,271.944 258.366,277.975 258.366,278.771 259.16,278.771 264.559,278.771 265.353,278.771 
	265.353,277.975 265.353,271.944 265.353,271.311 264.559,271.311 259.16,271.311 "/>
<path d="M123.897,284.169c-1.942,0-4.139,0.272-6.033,1.112c-1.318,0.584-2.181,1.934-3.175,3.177v-2.861v-0.95h-0.794h-5.238
	h-0.636v0.95v32.229v0.796h0.636h5.715h0.637v-0.796v-20.64c0-1.912,0.649-3.643,1.905-4.921c1.255-1.276,3.161-1.904,5.874-1.904
	h3.333c4.813,0,7.57,0.201,8.891,1.271c0.661,0.532,0.991,1.249,1.27,2.38c0.279,1.129,0.478,2.637,0.478,4.604v1.428v0.795h0.793
	h4.921h0.794v-0.795v-3.809c0-4.072-0.831-7.035-3.177-9.05c-2.344-2.011-5.923-3.017-11.111-3.017L123.897,284.169L123.897,284.169
	z"/>
<polygon points="258.366,284.645 258.366,285.597 258.366,317.825 258.366,318.621 259.16,318.621 264.559,318.621 265.353,318.621 
	265.353,317.825 265.353,285.597 265.353,284.645 264.559,284.645 259.16,284.645 "/>
<path d="M244.554,271.311h-5.714h-0.636v0.635v15.876c-0.66-0.871-1.141-1.713-2.224-2.223c-1.833-0.864-4.134-1.426-7.301-1.426
	h-8.415c-6.635,0-11.25,0.919-14.13,3.331c-2.878,2.413-3.81,6.164-3.81,11.433v5.873c0,5.743,1.89,9.265,5.081,11.432
	c3.19,2.166,7.375,2.856,12.382,2.856h7.78c2.932,0,5.612-0.443,7.779-1.429c1.521-0.692,2.241-2.059,3.175-3.333v3.493v0.794h0.795
	h5.237h0.637v-0.794v-45.884v-0.635H244.554L244.554,271.311z M238.204,304.649c0,2.83-0.604,4.955-2.063,6.352
	c-1.458,1.396-3.996,2.061-7.939,2.061h-8.73c-4.349,0-6.888-0.597-8.256-1.906c-1.368-1.306-1.907-3.453-1.907-6.508v-6.35
	c0-3.609,0.921-5.555,2.54-6.667s4.249-1.271,7.939-1.271h7.462c3.63,0,6.298,0.139,8.097,1.271c1.8,1.129,2.858,3.118,2.858,6.827
	V304.649L238.204,304.649z"/>
<path d="M316.633,286.867c-3.402-2.085-7.95-2.698-13.179-2.698h-7.778c-5.231,0-9.938,0.613-13.339,2.698
	c-3.398,2.085-5.396,5.917-5.396,11.431v6.828c0,5.514,1.998,9.188,5.396,11.271c3.401,2.083,8.108,2.699,13.339,2.699h7.778
	c5.229,0,9.776-0.613,13.179-2.699c3.397-2.083,5.398-5.759,5.398-11.271v-6.828C322.03,292.786,320.03,288.952,316.633,286.867z
	 M315.046,304.968c0,3.609-1.029,5.36-2.702,6.506c-1.666,1.147-4.031,1.588-7.143,1.588h-11.113c-3.105,0-5.638-0.44-7.299-1.588
	c-1.67-1.146-2.861-2.896-2.861-6.506v-6.51c0-3.613,1.191-5.682,2.861-6.827c1.665-1.148,4.193-1.271,7.299-1.271h11.113
	c3.109,0,5.477,0.122,7.143,1.271c1.673,1.146,2.702,3.214,2.702,6.827V304.968z"/>
<path d="M187.082,286.235c-3.209-1.709-7.589-2.063-12.7-2.063h-8.731c-4.946,0-8.256,0.584-10.637,2.063
	c-2.382,1.476-3.652,3.869-3.652,6.985v1.589v0.792h0.793h5.558h0.793v-0.792v-1.11c0-1.199,0.32-1.788,1.27-2.383
	c0.949-0.597,2.675-0.952,6.031-0.952h7.938c4.158,0,7.332,0.147,9.05,0.952c0.859,0.403,1.353,0.853,1.747,1.589
	c0.394,0.735,0.637,1.803,0.637,3.175v4.449c-0.851-0.93-1.693-1.792-3.018-2.223c-1.914-0.63-4.36-0.952-7.937-0.952h-8.731
	c-4.779,0-8.549,0.181-11.271,1.43c-1.362,0.624-2.451,1.745-3.176,3.018c-0.724,1.27-1.111,2.829-1.111,4.761v1.904
	c0,3.14,0.768,5.9,2.54,7.78c1.773,1.879,4.334,2.858,8.572,2.858h13.178c4.208,0,6.896-0.162,8.732-0.792
	c1.101-0.378,1.584-1.33,2.222-2.063v1.587v0.794h0.793h5.238h0.952v-0.794V296.25C192.164,291.228,190.293,287.938,187.082,286.235
	z M185.179,309.095c0,0.888-0.254,1.593-0.636,2.063c-0.379,0.475-0.905,0.801-1.907,1.112c-1.997,0.622-5.554,0.792-10.478,0.792
	h-6.987c-3.685,0-5.836-0.295-6.827-0.952c-0.494-0.326-0.767-0.915-0.953-1.428c-0.185-0.516-0.158-1.051-0.158-1.907v-0.952
	c0-0.95-0.07-1.707,0.158-2.221c0.229-0.521,0.557-0.96,1.111-1.27c1.111-0.62,3.351-0.795,6.829-0.795h8.254
	c4.165,0,7.225,0.167,9.05,0.795c0.912,0.313,1.525,0.75,1.906,1.27c0.38,0.516,0.637,1.231,0.637,2.221L185.179,309.095
	L185.179,309.095z"/>
<polygon points="223.758,338.148 223.758,436.581 250.27,436.581 250.27,365.931 250.429,365.931 286.15,436.581 306.473,436.581 
	342.193,365.931 342.353,365.931 342.353,436.581 368.864,436.581 368.864,338.148 327.11,338.148 296.309,401.494 265.512,338.148 
	"/>
<polygon points="108.337,339.099 108.337,437.373 138.502,437.373 138.502,403.875 207.564,403.875 207.564,381.013 
	138.502,381.013 138.502,362.756 211.056,362.756 211.056,339.099 "/>
<path d="M479.519,395.618v-56.52h-33.022l-66.679,42.548v36.039h72.554v19.688h27.146v-19.688h13.813v-22.069L479.519,395.618
	L479.519,395.618z M452.372,395.618h-50.168v-0.155l50.168-32.707V395.618z"/>
</svg>
