<?xml version="1.0" encoding="utf-8"?>
<!-- Generator: Adobe Illustrator 16.0.0, SVG Export Plug-In . SVG Version: 6.00 Build 0)  -->
<!DOCTYPE svg PUBLIC "-//W3C//DTD SVG 1.1//EN" "http://www.w3.org/Graphics/SVG/1.1/DTD/svg11.dtd">
<svg version="1.1" id="Ebene_1" xmlns="http://www.w3.org/2000/svg" xmlns:xlink="http://www.w3.org/1999/xlink" x="0px" y="0px"
	 width="512px" height="512px" viewBox="0 0 512 512" enable-background="new 0 0 512 512" xml:space="preserve">
<rect fill="#153D8A" width="512" height="512.045"/>
<path fill="#FBBA00" d="M227.913,380.546V177.529h-47.06v96.14L65.722,166.203v204.2h47.029V273.07L227.913,380.546z
	 M409.35,274.007c0,30.37-26.086,54.614-54.001,54.614c-28.338,0-54.104-24.244-54.104-54.614c0-30.399,25.766-54.703,54.104-54.703
	C383.264,219.304,409.35,243.607,409.35,274.007 M458.175,274.007c0-56.566-45.698-100.175-102.827-100.175
	c-57.157,0-102.928,43.61-102.928,100.175c0,56.472,45.771,100.094,102.928,100.094
	C412.477,374.101,458.175,330.479,458.175,274.007 M423.158,141.848c0-13.826-11.238-24.662-24.333-24.662
	c-13.766,0-24.64,10.836-24.64,24.662c0,13.115,10.873,24.289,24.64,24.289C411.921,166.136,423.158,154.963,423.158,141.848
	 M336.801,141.848c0-13.826-11.163-24.662-24.667-24.662c-13.799,0-24.627,10.836-24.627,24.662
	c0,13.115,10.828,24.289,24.627,24.289C325.638,166.136,336.801,154.963,336.801,141.848"/>
</svg>
