<?xml version="1.0" encoding="utf-8"?>
<!-- Generator: Adobe Illustrator 16.0.0, SVG Export Plug-In . SVG Version: 6.00 Build 0)  -->
<!DOCTYPE svg PUBLIC "-//W3C//DTD SVG 1.1//EN" "http://www.w3.org/Graphics/SVG/1.1/DTD/svg11.dtd">
<svg version="1.1" id="Ebene_1" xmlns="http://www.w3.org/2000/svg" xmlns:xlink="http://www.w3.org/1999/xlink" x="0px" y="0px"
	 width="512px" height="512px" viewBox="0 0 512 512" enable-background="new 0 0 512 512" xml:space="preserve">
<rect x="55.75" y="55.732" fill="#153D8A" width="400.5" height="400.535"/>
<path fill="#FBBA00" d="M234.03,353.405V194.6h-36.812v75.204l-90.059-84.063v159.73h36.788v-76.135L234.03,353.405z
	 M375.954,270.068c0,23.756-20.405,42.721-42.241,42.721c-22.166,0-42.322-18.965-42.322-42.721
	c0-23.779,20.156-42.791,42.322-42.791C355.549,227.278,375.954,246.288,375.954,270.068 M414.147,270.068
	c0-44.248-35.746-78.36-80.435-78.36c-44.71,0-80.513,34.113-80.513,78.36c0,44.173,35.803,78.296,80.513,78.296
	C378.401,348.364,414.147,314.241,414.147,270.068 M386.755,166.69c0-10.815-8.79-19.292-19.034-19.292
	c-10.768,0-19.273,8.476-19.273,19.292c0,10.259,8.505,19,19.273,19C377.966,185.688,386.755,176.949,386.755,166.69
	 M319.204,166.69c0-10.815-8.731-19.292-19.295-19.292c-10.794,0-19.264,8.476-19.264,19.292c0,10.259,8.47,19,19.264,19
	C310.473,185.688,319.204,176.949,319.204,166.69"/>
</svg>
