<?xml version="1.0" encoding="utf-8"?>
<!-- Generator: Adobe Illustrator 16.0.0, SVG Export Plug-In . SVG Version: 6.00 Build 0)  -->
<!DOCTYPE svg PUBLIC "-//W3C//DTD SVG 1.1//EN" "http://www.w3.org/Graphics/SVG/1.1/DTD/svg11.dtd">
<svg version="1.1" id="Ebene_1" xmlns="http://www.w3.org/2000/svg" xmlns:xlink="http://www.w3.org/1999/xlink" x="0px" y="0px"
	 width="512px" height="512px" viewBox="0 0 512 512" enable-background="new 0 0 512 512" xml:space="preserve">
<g id="g64047" transform="matrix(1.25,0,0,-1.25,679.95291,1173.373)">
	<path id="path64049" fill="#E41C2A" d="M-284.179,800.189c-15.586,7.818-33.879,12.318-53.431,12.354
		c-19.784,0.03-38.28-4.538-54.008-12.464l-23.416,30.835c22.029,11.047,48.113,17.411,76.058,17.374
		c28.846-0.044,55.707-6.933,78.161-18.73L-284.179,800.189z"/>
</g>
<g id="g64051" transform="matrix(1.25,0,0,-1.25,674.42291,1173.6642)">
	<path id="path64053" fill="#E41C2A" d="M-326.191,798.86c44.211-3.452,78.717-33.112,78.661-69.154
		c-0.056-38.298-39.143-69.277-87.322-69.21c-41.549,0.064-76.272,23.203-85,54.147l41.193,7.095
		c4.559-16.211,22.445-28.309,43.865-28.348c24.871-0.033,45.049,16.241,45.074,36.382c0.038,20.13-20.087,36.489-44.968,36.532
		c-5.884,0.007-11.493-0.894-16.644-2.537L-326.191,798.86z"/>
</g>
<g id="g64055" transform="matrix(1.25,0,0,-1.25,656.51291,1181.6942)">
	<path id="path64057" fill="#214295" d="M-463.389,740.775c0.046,32.225,16.764,61.321,43.592,82.074l30.656-26.261
		c-20.564-15.649-33.473-38.073-33.516-63.017c-0.071-47.383,46.287-85.869,103.539-85.96
		c57.243-0.092,103.717,38.259,103.799,85.64c0.034,24.944-12.809,47.416-33.302,63.121l29.952,24.503
		c25.538-20.71,41.287-49.164,41.237-80.549c-0.098-63.157-64.188-114.286-143.154-114.16
		C-399.562,626.282-463.489,677.608-463.389,740.775"/>
</g>
</svg>
