<?xml version="1.0" encoding="utf-8"?>
<!-- Generator: Adobe Illustrator 16.0.0, SVG Export Plug-In . SVG Version: 6.00 Build 0)  -->
<!DOCTYPE svg PUBLIC "-//W3C//DTD SVG 1.1//EN" "http://www.w3.org/Graphics/SVG/1.1/DTD/svg11.dtd">
<svg version="1.1" id="Ebene_1" xmlns="http://www.w3.org/2000/svg" xmlns:xlink="http://www.w3.org/1999/xlink" x="0px" y="0px"
	 width="512px" height="512px" viewBox="0 0 512 512" enable-background="new 0 0 512 512" xml:space="preserve">
<rect x="55.75" y="55.738" fill="#E30613" width="400.5" height="400.522"/>
<path fill="#FFFFFF" d="M213.327,270.035c0,23.827-20.433,42.742-42.327,42.742c-22.059,0-42.24-18.915-42.24-42.742
	c0-23.802,20.183-42.762,42.24-42.762C192.893,227.273,213.327,246.233,213.327,270.035 M251.534,270.035
	c0-44.175-35.772-78.302-80.534-78.302c-44.638,0-80.446,34.129-80.446,78.302c0,44.182,35.806,78.334,80.446,78.334
	C215.76,348.369,251.534,314.217,251.534,270.035 M424.486,270.035c0-44.175-35.798-78.302-80.456-78.302
	c-44.684,0-80.491,34.129-80.491,78.302c0,44.182,35.808,78.334,80.491,78.334C388.688,348.369,424.486,314.217,424.486,270.035
	 M386.29,270.035c0,23.827-20.39,42.742-42.262,42.742c-22.113,0-42.251-18.915-42.251-42.742c0-23.802,20.138-42.762,42.251-42.762
	C365.9,227.273,386.29,246.233,386.29,270.035 M397.038,166.656c0-10.794-8.726-19.24-18.973-19.24
	c-10.851,0-19.303,8.446-19.303,19.24c0,10.24,8.452,19.018,19.303,19.018C388.312,185.674,397.038,176.895,397.038,166.656
	 M329.57,166.656c0-10.794-8.772-19.24-19.293-19.24c-10.851,0-19.313,8.446-19.313,19.24c0,10.24,8.464,19.018,19.313,19.018
	C320.797,185.674,329.57,176.895,329.57,166.656"/>
</svg>
