<?xml version="1.0" encoding="utf-8"?>
<!-- Generator: Adobe Illustrator 16.0.0, SVG Export Plug-In . SVG Version: 6.00 Build 0)  -->
<!DOCTYPE svg PUBLIC "-//W3C//DTD SVG 1.1//EN" "http://www.w3.org/Graphics/SVG/1.1/DTD/svg11.dtd">
<svg version="1.1" id="Ebene_1" xmlns="http://www.w3.org/2000/svg" xmlns:xlink="http://www.w3.org/1999/xlink" x="0px" y="0px"
	 width="512px" height="512px" viewBox="0 0 512 512" enable-background="new 0 0 512 512" xml:space="preserve">
<rect y="0" fill="#E30613" width="512" height="512.162"/>
<path fill="#FFFFFF" d="M376.605,305.122c0-122.685-170.34-63.079-170.34-108.519c0-16.456,14.109-26.365,44.962-26.365
	c26.815,0,47.713,9.081,72.213,33.126l50.455-44.509c-25.928-35.021-67.2-50.922-119.959-50.922
	c-63.076,0-119.915,34.57-119.915,89.981c0,120.339,170.384,65.437,170.384,110.867c0,19.481-17.299,29.044-52.685,29.044
	c-32.236,0-64.971-18.189-77.271-40.864l-52.612,47.262c34.511,41.289,79.94,59.914,127.581,59.914
	C312.976,404.138,376.605,368.709,376.605,305.122"/>
</svg>
