<?xml version="1.0" encoding="utf-8"?>
<!-- Generator: Adobe Illustrator 16.0.0, SVG Export Plug-In . SVG Version: 6.00 Build 0)  -->
<!DOCTYPE svg PUBLIC "-//W3C//DTD SVG 1.1//EN" "http://www.w3.org/Graphics/SVG/1.1/DTD/svg11.dtd">
<svg version="1.1" id="Ebene_1" xmlns="http://www.w3.org/2000/svg" xmlns:xlink="http://www.w3.org/1999/xlink" x="0px" y="0px"
	 width="512px" height="512px" viewBox="0 0 512 512" enable-background="new 0 0 512 512" xml:space="preserve">
<rect x="55.75" y="55.687" fill="#E30613" width="400.5" height="400.627"/>
<path fill="#FFFFFF" d="M350.34,294.361c0-95.968-133.244-49.342-133.244-84.887c0-12.873,11.037-20.624,35.17-20.624
	c20.976,0,37.322,7.104,56.487,25.913l39.468-34.816c-20.282-27.395-52.566-39.833-93.835-39.833
	c-49.34,0-93.801,27.042-93.801,70.385c0,94.133,133.279,51.188,133.279,86.724c0,15.238-13.531,22.719-41.211,22.719
	c-25.216,0-50.822-14.228-60.443-31.966l-41.155,36.97c26.995,32.298,62.531,46.867,99.797,46.867
	C300.569,371.814,350.34,344.101,350.34,294.361"/>
</svg>
