<?xml version="1.0" encoding="utf-8"?>
<!-- Generator: Adobe Illustrator 16.0.0, SVG Export Plug-In . SVG Version: 6.00 Build 0)  -->
<!DOCTYPE svg PUBLIC "-//W3C//DTD SVG 1.1//EN" "http://www.w3.org/Graphics/SVG/1.1/DTD/svg11.dtd">
<svg version="1.1" id="Ebene_1" xmlns="http://www.w3.org/2000/svg" xmlns:xlink="http://www.w3.org/1999/xlink" x="0px" y="0px"
	 width="512px" height="512px" viewBox="0 0 512 512" enable-background="new 0 0 512 512" xml:space="preserve">
<g>
	<rect x="55.75" y="55.744" fill="#007A4C" width="400.5" height="400.513"/>
	<g>
		<path fill="#FFFFFF" d="M295.123,294.091c0-94.849-131.637-48.81-131.637-83.884c0-12.676,10.896-20.377,34.798-20.377
			c20.64,0,36.796,6.995,55.714,25.581l39.015-34.354c-19.995-27.052-51.97-39.318-92.675-39.318
			c-48.826,0-92.674,26.664-92.674,69.486c0,93.046,131.65,50.578,131.65,85.64c0,15.118-13.339,22.465-40.71,22.465
			c-24.982,0-50.187-13.998-59.707-31.523l-40.702,36.488c26.658,31.913,61.815,46.324,98.624,46.324
			C245.983,370.615,295.123,343.211,295.123,294.091 M302.879,245.782v-52.541h18.116v-36.545l54.407-15.175v51.72h25.545v52.541
			h-25.545v47.318c0,13.509,2.733,16.292,7.662,19.122l26.802,15.289l-24.736,44.051c-33.288-15.871-64.135-28.135-64.135-72.634
			v-53.147L302.879,245.782L302.879,245.782z"/>
	</g>
</g>
</svg>
