<?xml version="1.0" encoding="utf-8"?>
<!-- Generator: Adobe Illustrator 16.0.0, SVG Export Plug-In . SVG Version: 6.00 Build 0)  -->
<!DOCTYPE svg PUBLIC "-//W3C//DTD SVG 1.1//EN" "http://www.w3.org/Graphics/SVG/1.1/DTD/svg11.dtd">
<svg version="1.1" id="Ebene_1" xmlns="http://www.w3.org/2000/svg" xmlns:xlink="http://www.w3.org/1999/xlink" x="0px" y="0px"
	 width="512px" height="512px" viewBox="0 0 512 512" enable-background="new 0 0 512 512" xml:space="preserve">
<g>
	<rect fill="#007A4C" width="511.985" height="512"/>
	<g>
		<path fill="#FFFFFF" d="M306.006,304.693c0-121.25-168.28-62.396-168.28-107.234c0-16.204,13.929-26.049,44.484-26.049
			c26.385,0,47.039,8.942,71.223,32.701l49.875-43.917c-25.561-34.582-66.437-50.264-118.472-50.264
			c-62.418,0-118.471,34.087-118.471,88.829c0,118.946,168.296,64.656,168.296,109.479c0,19.327-17.051,28.718-52.042,28.718
			c-31.935,0-64.156-17.896-76.327-40.299L54.26,343.303c34.078,40.797,79.022,59.219,126.077,59.219
			C243.187,402.52,306.006,367.486,306.006,304.693 M315.92,242.938v-67.167h23.16v-46.718l69.552-19.399v66.117h32.656v67.167
			h-32.656v60.49c0,17.269,3.494,20.827,9.795,24.445l34.262,19.544l-31.621,56.314c-42.555-20.289-81.987-35.968-81.987-92.853
			v-67.941H315.92z"/>
	</g>
</g>
</svg>
